<svg width="32" height="32" viewBox="0 0 32 32" fill="none" xmlns="http://www.w3.org/2000/svg">
<circle cx="16" cy="16" r="16" fill="white"/>
<path d="M14.0058 21.0158C13.8742 21.0166 13.7437 20.9913 13.6219 20.9416C13.5001 20.8918 13.3892 20.8185 13.2958 20.7258C13.2021 20.6328 13.1277 20.5222 13.0769 20.4004C13.0261 20.2785 13 20.1478 13 20.0158C13 19.8838 13.0261 19.7531 13.0769 19.6312C13.1277 19.5094 13.2021 19.3988 13.2958 19.3058L16.6058 16.0158L13.4258 12.7058C13.2395 12.5184 13.135 12.265 13.135 12.0008C13.135 11.7366 13.2395 11.4832 13.4258 11.2958C13.5188 11.2021 13.6294 11.1277 13.7512 11.0769C13.8731 11.0261 14.0038 11 14.1358 11C14.2678 11 14.3985 11.0261 14.5204 11.0769C14.6422 11.1277 14.7528 11.2021 14.8458 11.2958L18.7058 15.2958C18.889 15.4827 18.9917 15.734 18.9917 15.9958C18.9917 16.2576 18.889 16.5089 18.7058 16.6958L14.7058 20.6958C14.616 20.7927 14.508 20.8709 14.3878 20.9258C14.2677 20.9808 14.1378 21.0113 14.0058 21.0158Z" fill="#3671E9"/>
</svg>
